<svg width="93" height="20" viewBox="0 0 93 20" fill="none" xmlns="http://www.w3.org/2000/svg">
<path fill-rule="evenodd" clip-rule="evenodd" d="M25.575 0.151794C27.331 0.151794 28.7094 0.70492 29.7103 1.81117C30.7287 2.89986 31.238 4.43632 31.238 6.42054V14.1116H28.9991L28.367 11.9518C27.9807 12.6015 27.41 13.1722 26.6549 13.6639C25.8999 14.138 25.0043 14.375 23.9683 14.375C23.0552 14.375 22.2299 14.1906 21.4924 13.8219C20.7725 13.4531 20.2106 12.9351 19.8067 12.2679C19.4028 11.6006 19.2009 10.8455 19.2009 10.0027C19.2009 8.70328 19.7101 7.66727 20.7286 6.89465C21.7646 6.10447 23.2659 5.70938 25.2326 5.70938H28.1826C28.1124 4.79629 27.8314 4.07635 27.3398 3.54956C26.8656 3.00522 26.2247 2.73305 25.417 2.73305C24.7673 2.73305 24.2054 2.89108 23.7313 3.20715C23.2572 3.52322 22.906 3.90953 22.6777 4.36608L19.8857 3.89197C20.2194 2.73304 20.9042 1.81995 21.9402 1.15269C22.9938 0.485426 24.2054 0.151794 25.575 0.151794ZM24.6795 11.8201C25.7331 11.8201 26.5847 11.4777 27.2344 10.7929C27.8841 10.108 28.2089 9.20373 28.2089 8.07992H25.338C23.2835 8.07992 22.2563 8.67694 22.2563 9.87099C22.2563 10.468 22.4758 10.9421 22.9147 11.2933C23.3537 11.6445 23.942 11.8201 24.6795 11.8201ZM34.524 0.415187V19.5112H37.553V12.0308C38.0974 12.6981 38.7997 13.26 39.6602 13.7165C40.5206 14.1555 41.5039 14.375 42.6102 14.375C43.892 14.375 45.0421 14.0765 46.0606 13.4795C47.0791 12.8649 47.8692 12.022 48.4311 10.9509C49.0106 9.86221 49.3003 8.63305 49.3003 7.2634C49.3003 5.89376 49.0106 4.67337 48.4311 3.60224C47.8692 2.51355 47.0791 1.67069 46.0606 1.07367C45.0421 0.459086 43.892 0.151794 42.6102 0.151794C41.4688 0.151794 40.4591 0.397628 39.5811 0.889294C38.7032 1.3634 37.9832 1.94287 37.4213 2.62769L36.7892 0.415187H34.524ZM44.9544 10.4505C44.1642 11.2582 43.1369 11.6621 41.8727 11.6621C40.5908 11.6621 39.546 11.2582 38.7383 10.4505C37.9481 9.62516 37.553 8.56281 37.553 7.2634C37.553 5.964 37.9481 4.91043 38.7383 4.10269C39.546 3.27739 40.5908 2.86474 41.8727 2.86474C43.1369 2.86474 44.1642 3.27739 44.9544 4.10269C45.7445 4.91043 46.1396 5.964 46.1396 7.2634C46.1396 8.56281 45.7445 9.62516 44.9544 10.4505ZM68.6422 13.4795C69.7309 14.0765 70.9601 14.375 72.3297 14.375C73.8223 14.375 75.1744 13.9975 76.386 13.2424C77.5976 12.4874 78.4492 11.4162 78.9409 10.029L76.0962 9.55492C75.7802 10.1695 75.3061 10.67 74.6739 11.0563C74.0418 11.425 73.3218 11.6094 72.5141 11.6094C71.2849 11.6094 70.284 11.2055 69.5114 10.3978C68.7388 9.59004 68.3525 8.54525 68.3525 7.2634C68.3525 5.98156 68.7388 4.93677 69.5114 4.12903C70.284 3.32129 71.2849 2.91742 72.5141 2.91742C73.2867 2.91742 73.9803 3.1018 74.5949 3.47055C75.2271 3.8393 75.6924 4.32218 75.9909 4.91921L78.8355 4.4451C78.3439 3.07546 77.5098 2.02188 76.3333 1.28438C75.1744 0.529325 73.8398 0.151794 72.3297 0.151794C70.9601 0.151794 69.7309 0.459086 68.6422 1.07367C67.5535 1.67069 66.7019 2.51355 66.0873 3.60224C65.4903 4.67337 65.1918 5.89376 65.1918 7.2634C65.1918 8.63305 65.4903 9.86221 66.0873 10.9509C66.7019 12.022 67.5535 12.8649 68.6422 13.4795ZM92.0648 14.1116V0.415187H85.9805C84.962 0.415187 84.0489 0.617122 83.2412 1.02099C82.4334 1.4073 81.8013 1.95165 81.3448 2.65403C80.8882 3.35641 80.6599 4.15537 80.6599 5.0509C80.6599 6.01668 80.9145 6.86831 81.4238 7.60581C81.933 8.34331 82.6354 8.88766 83.5309 9.23885L80.2648 14.1116H83.7153L86.6126 9.71296H89.0358V14.1116H92.0648ZM89.0358 3.04912V7.07903H85.9805C85.2957 7.07903 84.7425 6.89465 84.3211 6.5259C83.8997 6.15715 83.689 5.66549 83.689 5.0509C83.689 4.45388 83.8997 3.97099 84.3211 3.60224C84.7425 3.23349 85.2957 3.04912 85.9805 3.04912H89.0358ZM61.1689 0.415187H64.2506L58.6403 15.8237C58.1662 17.1231 57.5516 18.0625 56.7965 18.642C56.059 19.2214 55.0669 19.5112 53.8202 19.5112H51.7394L51.476 16.7455H54.0309C54.5401 16.7455 54.9264 16.6314 55.1898 16.4031C55.4708 16.1924 55.7078 15.8149 55.901 15.2705L56.059 14.8491L49.9747 0.415187H53.2144L57.2443 10.2924H57.6657L61.1689 0.415187ZM0.365234 14.1116H3.26256V3.94465H3.68399L7.10809 14.1116H9.663L13.2451 3.94465H13.6666V14.1116H16.5639V0.415187H11.9545L8.66211 9.81831H8.24068L5.07997 0.415187H0.365234V14.1116Z" fill="black"/>
</svg>
